<svg width="56" height="38" viewBox="0 0 56 38" fill="none" xmlns="http://www.w3.org/2000/svg">
<path d="M8.07955 29H7.02273C6.96023 28.696 6.85085 28.429 6.6946 28.1989C6.54119 27.9688 6.35369 27.7756 6.1321 27.6193C5.91335 27.4602 5.67045 27.3409 5.40341 27.2614C5.13636 27.1818 4.85795 27.142 4.56818 27.142C4.03977 27.142 3.56108 27.2756 3.1321 27.5426C2.70597 27.8097 2.36648 28.2031 2.11364 28.723C1.86364 29.2429 1.73864 29.8807 1.73864 30.6364C1.73864 31.392 1.86364 32.0298 2.11364 32.5497C2.36648 33.0696 2.70597 33.4631 3.1321 33.7301C3.56108 33.9972 4.03977 34.1307 4.56818 34.1307C4.85795 34.1307 5.13636 34.0909 5.40341 34.0114C5.67045 33.9318 5.91335 33.8139 6.1321 33.6577C6.35369 33.4986 6.54119 33.304 6.6946 33.0739C6.85085 32.8409 6.96023 32.5739 7.02273 32.2727H8.07955C8 32.7187 7.85511 33.1179 7.64489 33.4702C7.43466 33.8224 7.1733 34.1222 6.8608 34.3693C6.5483 34.6136 6.19744 34.7997 5.80824 34.9276C5.42188 35.0554 5.00852 35.1193 4.56818 35.1193C3.82386 35.1193 3.16193 34.9375 2.58239 34.5739C2.00284 34.2102 1.54688 33.6932 1.21449 33.0227C0.882102 32.3523 0.715909 31.5568 0.715909 30.6364C0.715909 29.7159 0.882102 28.9205 1.21449 28.25C1.54688 27.5795 2.00284 27.0625 2.58239 26.6989C3.16193 26.3352 3.82386 26.1534 4.56818 26.1534C5.00852 26.1534 5.42188 26.2173 5.80824 26.3452C6.19744 26.473 6.5483 26.6605 6.8608 26.9077C7.1733 27.152 7.43466 27.4503 7.64489 27.8026C7.85511 28.152 8 28.5511 8.07955 29ZM12.31 35.1364C11.7191 35.1364 11.2006 34.9957 10.7546 34.7145C10.3114 34.4332 9.96484 34.0398 9.71484 33.5341C9.46768 33.0284 9.34411 32.4375 9.34411 31.7614C9.34411 31.0795 9.46768 30.4844 9.71484 29.9759C9.96484 29.4673 10.3114 29.0724 10.7546 28.7912C11.2006 28.5099 11.7191 28.3693 12.31 28.3693C12.9009 28.3693 13.418 28.5099 13.8612 28.7912C14.3072 29.0724 14.6538 29.4673 14.9009 29.9759C15.1509 30.4844 15.2759 31.0795 15.2759 31.7614C15.2759 32.4375 15.1509 33.0284 14.9009 33.5341C14.6538 34.0398 14.3072 34.4332 13.8612 34.7145C13.418 34.9957 12.9009 35.1364 12.31 35.1364ZM12.31 34.233C12.7589 34.233 13.1282 34.1179 13.418 33.8878C13.7077 33.6577 13.9222 33.3551 14.0614 32.9801C14.2006 32.6051 14.2702 32.1989 14.2702 31.7614C14.2702 31.3239 14.2006 30.9162 14.0614 30.5384C13.9222 30.1605 13.7077 29.8551 13.418 29.6222C13.1282 29.3892 12.7589 29.2727 12.31 29.2727C11.8612 29.2727 11.4918 29.3892 11.2021 29.6222C10.9123 29.8551 10.6978 30.1605 10.5586 30.5384C10.4194 30.9162 10.3498 31.3239 10.3498 31.7614C10.3498 32.1989 10.4194 32.6051 10.5586 32.9801C10.6978 33.3551 10.9123 33.6577 11.2021 33.8878C11.4918 34.1179 11.8612 34.233 12.31 34.233ZM16.8111 35V28.4545H17.7827V29.4773H17.8679C18.0043 29.1278 18.2244 28.8565 18.5284 28.6634C18.8324 28.4673 19.1974 28.3693 19.6236 28.3693C20.0554 28.3693 20.4148 28.4673 20.7017 28.6634C20.9915 28.8565 21.2173 29.1278 21.3793 29.4773H21.4474C21.6151 29.1392 21.8665 28.8707 22.2017 28.6719C22.5369 28.4702 22.9389 28.3693 23.4077 28.3693C23.9929 28.3693 24.4716 28.5526 24.8438 28.919C25.2159 29.2827 25.402 29.8494 25.402 30.6193V35H24.3963V30.6193C24.3963 30.1364 24.2642 29.7912 24 29.5838C23.7358 29.3764 23.4247 29.2727 23.0668 29.2727C22.6065 29.2727 22.25 29.4119 21.9972 29.6903C21.7443 29.9659 21.6179 30.3153 21.6179 30.7386V35H20.5952V30.517C20.5952 30.1449 20.4744 29.8452 20.233 29.6179C19.9915 29.3878 19.6804 29.2727 19.2997 29.2727C19.0384 29.2727 18.794 29.3423 18.5668 29.4815C18.3423 29.6207 18.1605 29.8139 18.0213 30.0611C17.8849 30.3054 17.8168 30.5881 17.8168 30.9091V35H16.8111ZM27.2408 35V28.4545H28.2124V29.4773H28.2976C28.4339 29.1278 28.6541 28.8565 28.9581 28.6634C29.2621 28.4673 29.6271 28.3693 30.0533 28.3693C30.4851 28.3693 30.8445 28.4673 31.1314 28.6634C31.4212 28.8565 31.647 29.1278 31.8089 29.4773H31.8771C32.0447 29.1392 32.2962 28.8707 32.6314 28.6719C32.9666 28.4702 33.3686 28.3693 33.8374 28.3693C34.4226 28.3693 34.9013 28.5526 35.2734 28.919C35.6456 29.2827 35.8317 29.8494 35.8317 30.6193V35H34.826V30.6193C34.826 30.1364 34.6939 29.7912 34.4297 29.5838C34.1655 29.3764 33.8544 29.2727 33.4964 29.2727C33.0362 29.2727 32.6797 29.4119 32.4268 29.6903C32.174 29.9659 32.0476 30.3153 32.0476 30.7386V35H31.0249V30.517C31.0249 30.1449 30.9041 29.8452 30.6626 29.6179C30.4212 29.3878 30.1101 29.2727 29.7294 29.2727C29.468 29.2727 29.2237 29.3423 28.9964 29.4815C28.772 29.6207 28.5902 29.8139 28.451 30.0611C28.3146 30.3054 28.2464 30.5881 28.2464 30.9091V35H27.2408ZM40.4148 35.1364C39.7841 35.1364 39.2401 34.9972 38.7827 34.7188C38.3281 34.4375 37.9773 34.0455 37.7301 33.5426C37.4858 33.0369 37.3636 32.4489 37.3636 31.7784C37.3636 31.108 37.4858 30.517 37.7301 30.0057C37.9773 29.4915 38.321 29.0909 38.7614 28.804C39.2045 28.5142 39.7216 28.3693 40.3125 28.3693C40.6534 28.3693 40.9901 28.4261 41.3224 28.5398C41.6548 28.6534 41.9574 28.8381 42.2301 29.0938C42.5028 29.3466 42.7202 29.6818 42.8821 30.0994C43.044 30.517 43.125 31.0312 43.125 31.642V32.0682H38.0795V31.1989H42.1023C42.1023 30.8295 42.0284 30.5 41.8807 30.2102C41.7358 29.9205 41.5284 29.6918 41.2585 29.5241C40.9915 29.3565 40.6761 29.2727 40.3125 29.2727C39.9119 29.2727 39.5653 29.3722 39.2727 29.571C38.983 29.767 38.7599 30.0227 38.6037 30.3381C38.4474 30.6534 38.3693 30.9915 38.3693 31.3523V31.9318C38.3693 32.4261 38.4545 32.8452 38.625 33.1889C38.7983 33.5298 39.0384 33.7898 39.3452 33.9688C39.652 34.1449 40.0085 34.233 40.4148 34.233C40.679 34.233 40.9176 34.196 41.1307 34.1222C41.3466 34.0455 41.5327 33.9318 41.6889 33.7812C41.8452 33.6278 41.9659 33.4375 42.0511 33.2102L43.0227 33.483C42.9205 33.8125 42.7486 34.1023 42.5071 34.3523C42.2656 34.5994 41.9673 34.7926 41.6122 34.9318C41.2571 35.0682 40.858 35.1364 40.4148 35.1364ZM45.6605 31.0625V35H44.6548V28.4545H45.6264V29.4773H45.7116C45.8651 29.1449 46.098 28.8778 46.4105 28.6761C46.723 28.4716 47.1264 28.3693 47.6207 28.3693C48.0639 28.3693 48.4517 28.4602 48.7841 28.642C49.1165 28.821 49.375 29.0938 49.5597 29.4602C49.7443 29.8239 49.8366 30.2841 49.8366 30.8409V35H48.831V30.9091C48.831 30.3949 48.6974 29.9943 48.4304 29.7074C48.1634 29.4176 47.7969 29.2727 47.331 29.2727C47.0099 29.2727 46.723 29.3423 46.4702 29.4815C46.2202 29.6207 46.0227 29.8239 45.8778 30.0909C45.733 30.358 45.6605 30.6818 45.6605 31.0625ZM54.521 28.4545V29.3068H51.1289V28.4545H54.521ZM52.1175 26.8864H53.1232V33.125C53.1232 33.4091 53.1644 33.6222 53.2468 33.7642C53.332 33.9034 53.44 33.9972 53.5707 34.0455C53.7042 34.0909 53.8448 34.1136 53.9925 34.1136C54.1033 34.1136 54.1942 34.108 54.2653 34.0966C54.3363 34.0824 54.3931 34.071 54.4357 34.0625L54.6403 34.9659C54.5721 34.9915 54.4769 35.017 54.3548 35.0426C54.2326 35.071 54.0778 35.0852 53.8903 35.0852C53.6062 35.0852 53.3278 35.0241 53.055 34.902C52.7852 34.7798 52.5607 34.5938 52.3817 34.3438C52.2056 34.0938 52.1175 33.7784 52.1175 33.3977V26.8864Z" fill="#5F5F5F"/>
<path d="M20.763 0H33.831C34.5634 0.00132176 35.2654 0.292847 35.7833 0.810724C36.3012 1.3286 36.5927 2.03061 36.594 2.763V10.7C36.5927 11.4324 36.3012 12.1344 35.7833 12.6523C35.2654 13.1702 34.5634 13.4617 33.831 13.463H25.541L21.341 17.063C21.2945 17.1027 21.2407 17.1328 21.1826 17.1517C21.1244 17.1706 21.0631 17.1778 21.0022 17.173C20.9413 17.1682 20.8819 17.1514 20.8275 17.1236C20.7731 17.0958 20.7246 17.0575 20.685 17.011C20.6059 16.9192 20.5663 16.7999 20.575 16.679L20.795 13.457H20.763C20.0316 13.4557 19.3305 13.165 18.8128 12.6484C18.2951 12.1318 18.0029 11.4313 18 10.7V2.763C18.0013 2.03061 18.2928 1.3286 18.8107 0.810724C19.3286 0.292847 20.0306 0.00132176 20.763 0ZM23.483 8.575C23.4192 8.57918 23.3553 8.57023 23.2951 8.5487C23.235 8.52717 23.1799 8.49353 23.1332 8.44985C23.0866 8.40617 23.0494 8.35338 23.024 8.29475C22.9986 8.23612 22.9855 8.1729 22.9855 8.109C22.9855 8.0451 22.9986 7.98188 23.024 7.92325C23.0494 7.86462 23.0866 7.81183 23.1332 7.76815C23.1799 7.72447 23.235 7.69083 23.2951 7.6693C23.3553 7.64777 23.4192 7.63882 23.483 7.643H29.61C29.6738 7.63882 29.7377 7.64777 29.7979 7.6693C29.858 7.69083 29.9131 7.72447 29.9598 7.76815C30.0064 7.81183 30.0436 7.86462 30.069 7.92325C30.0944 7.98188 30.1075 8.0451 30.1075 8.109C30.1075 8.1729 30.0944 8.23612 30.069 8.29475C30.0436 8.35338 30.0064 8.40617 29.9598 8.44985C29.9131 8.49353 29.858 8.52717 29.7979 8.5487C29.7377 8.57023 29.6738 8.57918 29.61 8.575H23.483ZM23.483 5.375C23.4192 5.37918 23.3553 5.37023 23.2951 5.3487C23.235 5.32717 23.1799 5.29353 23.1332 5.24985C23.0866 5.20617 23.0494 5.15338 23.024 5.09475C22.9986 5.03612 22.9855 4.9729 22.9855 4.909C22.9855 4.8451 22.9986 4.78188 23.024 4.72325C23.0494 4.66462 23.0866 4.61183 23.1332 4.56815C23.1799 4.52447 23.235 4.49083 23.2951 4.4693C23.3553 4.44777 23.4192 4.43882 23.483 4.443H31.645C31.7088 4.43882 31.7727 4.44777 31.8329 4.4693C31.893 4.49083 31.9481 4.52447 31.9948 4.56815C32.0414 4.61183 32.0786 4.66462 32.104 4.72325C32.1294 4.78188 32.1425 4.8451 32.1425 4.909C32.1425 4.9729 32.1294 5.03612 32.104 5.09475C32.0786 5.15338 32.0414 5.20617 31.9948 5.24985C31.9481 5.29353 31.893 5.32717 31.8329 5.3487C31.7727 5.37023 31.7088 5.37918 31.645 5.375H23.483ZM33.829 0.932H20.763C20.2776 0.932529 19.8121 1.12561 19.4689 1.46887C19.1256 1.81214 18.9325 2.27755 18.932 2.763V10.7C18.9333 11.1852 19.1267 11.6502 19.4697 11.9933C19.8128 12.3363 20.2778 12.5297 20.763 12.531H21.331C21.4535 12.5397 21.5676 12.5966 21.6484 12.6891C21.7291 12.7817 21.77 12.9024 21.762 13.025L21.582 15.636L25.04 12.664C25.1274 12.5778 25.2452 12.5293 25.368 12.529H33.83C34.3147 12.5269 34.779 12.3336 35.122 11.9912C35.4651 11.6487 35.6591 11.1847 35.662 10.7V2.763C35.6607 2.27745 35.4671 1.81219 35.1235 1.46904C34.78 1.12589 34.3146 0.932792 33.829 0.932Z" fill="#5F5F5F"/>
</svg>
