<svg width="23" height="22" viewBox="0 0 23 22" fill="none" xmlns="http://www.w3.org/2000/svg">
<path d="M18.935 9.906C18.935 11.6376 18.4215 13.3303 17.4594 14.7701C16.4974 16.2099 15.13 17.332 13.5302 17.9947C11.9303 18.6573 10.1699 18.8306 8.47162 18.4927C6.77328 18.1548 5.2133 17.3209 3.98893 16.0964C2.76456 14.8719 1.9308 13.3118 1.5931 11.6134C1.2554 9.91503 1.42892 8.15466 2.09172 6.55491C2.75452 4.95516 3.87683 3.58789 5.31671 2.626C6.75659 1.66411 8.44938 1.1508 10.181 1.151C12.5028 1.15127 14.7294 2.07378 16.3711 3.71563C18.0127 5.35749 18.935 7.5842 18.935 9.906Z" stroke="#5C5C5C" stroke-width="2" stroke-linecap="round" stroke-linejoin="round"/>
<path d="M21.123 20.849L16.363 16.089" stroke="#5C5C5C" stroke-width="2" stroke-linecap="round" stroke-linejoin="round"/>
</svg>
