<svg width="23" height="24" viewBox="0 0 23 24" fill="none" xmlns="http://www.w3.org/2000/svg">
<path fill-rule="evenodd" clip-rule="evenodd" d="M11.306 0.5C13.5421 0.5 15.728 1.16309 17.5873 2.4054C19.4465 3.64772 20.8957 5.41348 21.7514 7.47938C22.6071 9.54528 22.831 11.8185 22.3948 14.0117C21.9585 16.2048 20.8817 18.2194 19.3005 19.8005C17.7194 21.3817 15.7048 22.4585 13.5117 22.8948C11.3185 23.331 9.04528 23.1071 6.97938 22.2514C4.91348 21.3957 3.14772 19.9465 1.9054 18.0873C0.663085 16.228 0 14.0421 0 11.806C0 8.80746 1.19116 5.93174 3.31145 3.81145C5.43174 1.69116 8.30746 0.5 11.306 0.5Z" fill="#0075FA"/>
<path fill-rule="evenodd" clip-rule="evenodd" d="M5.98 10.323H7.923C8.02909 10.323 8.13083 10.3651 8.20584 10.4402C8.28086 10.5152 8.323 10.6169 8.323 10.723V16.05C8.323 16.1561 8.28086 16.2578 8.20584 16.3328C8.13083 16.4079 8.02909 16.45 7.923 16.45H5.98C5.87392 16.45 5.77218 16.4079 5.69716 16.3328C5.62215 16.2578 5.58 16.1561 5.58 16.05V10.723C5.58 10.6169 5.62215 10.5152 5.69716 10.4402C5.77218 10.3651 5.87392 10.323 5.98 10.323ZM11.08 6.323C11.29 5.252 13.042 6.238 13.158 7.963C13.1839 8.57581 13.1338 9.18947 13.009 9.78999H15.509C16.549 9.832 17.458 10.578 16.816 11.801C16.963 12.335 16.985 12.96 16.588 13.209C16.633 13.533 16.6003 13.863 16.4924 14.1719C16.3846 14.4807 16.2049 14.7594 15.968 14.985C15.9596 15.3689 15.8462 15.7431 15.64 16.067C15.303 16.542 15.031 16.435 14.501 16.435H10.27C9.98131 16.4547 9.69261 16.3968 9.4338 16.2674C9.17498 16.138 8.95548 15.9418 8.798 15.699V10.989C10.07 10.652 10.739 8.928 11.078 7.796V6.323H11.08Z" fill="white"/>
</svg>
