<svg width="69" height="41" viewBox="0 0 69 41" fill="none" xmlns="http://www.w3.org/2000/svg">
<path d="M30 8C32.2091 8 34 6.20914 34 4C34 1.79086 32.2091 0 30 0C27.7909 0 26 1.79086 26 4C26 6.20914 27.7909 8 30 8Z" fill="#8A8A8A"/>
<path d="M30 9C31.0609 9 32.0783 9.42143 32.8284 10.1716C33.5786 10.9217 34 11.9391 34 13V21H26V13C26 11.9391 26.4214 10.9217 27.1716 10.1716C27.9217 9.42143 28.9391 9 30 9Z" fill="#8A8A8A"/>
<path d="M37 14C38.1046 14 39 13.1046 39 12C39 10.8954 38.1046 10 37 10C35.8954 10 35 10.8954 35 12C35 13.1046 35.8954 14 37 14Z" fill="#8A8A8A"/>
<path d="M37 15C37.5304 15 38.0391 15.2107 38.4142 15.5858C38.7893 15.9609 39 16.4696 39 17V21H35V17C35 16.4696 35.2107 15.9609 35.5858 15.5858C35.9609 15.2107 36.4696 15 37 15Z" fill="#8A8A8A"/>
<path d="M1.05682 29.2727H2.31818L5.28409 36.517H5.38636L8.35227 29.2727H9.61364V38H8.625V31.3693H8.53977L5.8125 38H4.85795L2.13068 31.3693H2.04545V38H1.05682V29.2727ZM12.244 40.4545C12.0735 40.4545 11.9215 40.4403 11.788 40.4119C11.6545 40.3864 11.5621 40.3608 11.511 40.3352L11.7667 39.4489C12.011 39.5114 12.2269 39.5341 12.4144 39.517C12.6019 39.5 12.7681 39.4162 12.913 39.2656C13.0607 39.1179 13.1957 38.8778 13.3178 38.5455L13.5053 38.0341L11.0849 31.4545H12.1758L13.9826 36.6705H14.0508L15.8576 31.4545H16.9485L14.1701 38.9545C14.0451 39.2926 13.8903 39.5724 13.7056 39.794C13.521 40.0185 13.3065 40.1847 13.0621 40.2926C12.8207 40.4006 12.5479 40.4545 12.244 40.4545ZM28.7077 29.2727V38H27.685L22.9293 31.1477H22.8441V38H21.7873V29.2727H22.81L27.5827 36.142H27.668V29.2727H28.7077ZM33.4304 38.1364C32.7997 38.1364 32.2557 37.9972 31.7983 37.7188C31.3438 37.4375 30.9929 37.0455 30.7457 36.5426C30.5014 36.0369 30.3793 35.4489 30.3793 34.7784C30.3793 34.108 30.5014 33.517 30.7457 33.0057C30.9929 32.4915 31.3366 32.0909 31.777 31.804C32.2202 31.5142 32.7372 31.3693 33.3281 31.3693C33.669 31.3693 34.0057 31.4261 34.3381 31.5398C34.6705 31.6534 34.973 31.8381 35.2457 32.0938C35.5185 32.3466 35.7358 32.6818 35.8977 33.0994C36.0597 33.517 36.1406 34.0312 36.1406 34.642V35.0682H31.0952V34.1989H35.1179C35.1179 33.8295 35.044 33.5 34.8963 33.2102C34.7514 32.9205 34.544 32.6918 34.2741 32.5241C34.0071 32.3565 33.6918 32.2727 33.3281 32.2727C32.9276 32.2727 32.581 32.3722 32.2884 32.571C31.9986 32.767 31.7756 33.0227 31.6193 33.3381C31.4631 33.6534 31.3849 33.9915 31.3849 34.3523V34.9318C31.3849 35.4261 31.4702 35.8452 31.6406 36.1889C31.8139 36.5298 32.054 36.7898 32.3608 36.9688C32.6676 37.1449 33.0241 37.233 33.4304 37.233C33.6946 37.233 33.9332 37.196 34.1463 37.1222C34.3622 37.0455 34.5483 36.9318 34.7045 36.7812C34.8608 36.6278 34.9815 36.4375 35.0668 36.2102L36.0384 36.483C35.9361 36.8125 35.7642 37.1023 35.5227 37.3523C35.2813 37.5994 34.983 37.7926 34.6278 37.9318C34.2727 38.0682 33.8736 38.1364 33.4304 38.1364ZM40.517 31.4545V32.3068H37.125V31.4545H40.517ZM38.1136 29.8864H39.1193V36.125C39.1193 36.4091 39.1605 36.6222 39.2429 36.7642C39.3281 36.9034 39.4361 36.9972 39.5668 37.0455C39.7003 37.0909 39.8409 37.1136 39.9886 37.1136C40.0994 37.1136 40.1903 37.108 40.2614 37.0966C40.3324 37.0824 40.3892 37.071 40.4318 37.0625L40.6364 37.9659C40.5682 37.9915 40.473 38.017 40.3509 38.0426C40.2287 38.071 40.0739 38.0852 39.8864 38.0852C39.6023 38.0852 39.3239 38.0241 39.0511 37.902C38.7813 37.7798 38.5568 37.5938 38.3778 37.3438C38.2017 37.0938 38.1136 36.7784 38.1136 36.3977V29.8864ZM43.5128 38L41.5185 31.4545H42.5753L43.9901 36.4659H44.0582L45.456 31.4545H46.5298L47.9105 36.4489H47.9787L49.3935 31.4545H50.4503L48.456 38H47.4673L46.0355 32.9716H45.9332L44.5014 38H43.5128ZM54.2163 38.1364C53.6254 38.1364 53.1069 37.9957 52.6609 37.7145C52.2177 37.4332 51.8711 37.0398 51.6211 36.5341C51.3739 36.0284 51.2504 35.4375 51.2504 34.7614C51.2504 34.0795 51.3739 33.4844 51.6211 32.9759C51.8711 32.4673 52.2177 32.0724 52.6609 31.7912C53.1069 31.5099 53.6254 31.3693 54.2163 31.3693C54.8072 31.3693 55.3242 31.5099 55.7674 31.7912C56.2134 32.0724 56.56 32.4673 56.8072 32.9759C57.0572 33.4844 57.1822 34.0795 57.1822 34.7614C57.1822 35.4375 57.0572 36.0284 56.8072 36.5341C56.56 37.0398 56.2134 37.4332 55.7674 37.7145C55.3242 37.9957 54.8072 38.1364 54.2163 38.1364ZM54.2163 37.233C54.6651 37.233 55.0344 37.1179 55.3242 36.8878C55.614 36.6577 55.8285 36.3551 55.9677 35.9801C56.1069 35.6051 56.1765 35.1989 56.1765 34.7614C56.1765 34.3239 56.1069 33.9162 55.9677 33.5384C55.8285 33.1605 55.614 32.8551 55.3242 32.6222C55.0344 32.3892 54.6651 32.2727 54.2163 32.2727C53.7674 32.2727 53.3981 32.3892 53.1083 32.6222C52.8185 32.8551 52.604 33.1605 52.4648 33.5384C52.3256 33.9162 52.256 34.3239 52.256 34.7614C52.256 35.1989 52.3256 35.6051 52.4648 35.9801C52.604 36.3551 52.8185 36.6577 53.1083 36.8878C53.3981 37.1179 53.7674 37.233 54.2163 37.233ZM58.7173 38V31.4545H59.6889V32.4432H59.7571C59.8764 32.1193 60.0923 31.8565 60.4048 31.6548C60.7173 31.4531 61.0696 31.3523 61.4616 31.3523C61.5355 31.3523 61.6278 31.3537 61.7386 31.3565C61.8494 31.3594 61.9332 31.3636 61.9901 31.3693V32.392C61.956 32.3835 61.8778 32.3707 61.7557 32.3537C61.6364 32.3338 61.5099 32.3239 61.3764 32.3239C61.0582 32.3239 60.7741 32.3906 60.5241 32.5241C60.277 32.6548 60.081 32.8366 59.9361 33.0696C59.794 33.2997 59.723 33.5625 59.723 33.858V38H58.7173ZM64.1197 35.6136L64.1026 34.3693H64.3072L67.1708 31.4545H68.4151L65.364 34.5398H65.2788L64.1197 35.6136ZM63.1822 38V29.2727H64.1879V38H63.1822ZM67.3413 38L64.7844 34.7614L65.5004 34.0625L68.6197 38H67.3413Z" fill="#5F5F5F"/>
</svg>
