<svg width="72" height="43" viewBox="0 0 72 43" fill="none" xmlns="http://www.w3.org/2000/svg">
<path d="M25 20.4V18.6H27.52V9.41997C27.4997 7.801 28.0226 6.22193 29.005 4.93497C29.9552 3.65012 31.3518 2.76726 32.92 2.45998V1.58997C32.9145 1.37536 32.956 1.16217 33.0415 0.965256C33.127 0.768346 33.2544 0.592477 33.415 0.449966C33.7416 0.160015 34.1632 -0.00012207 34.6 -0.00012207C35.0368 -0.00012207 35.4584 0.160015 35.785 0.449966C35.9465 0.59201 36.0749 0.767665 36.1613 0.9646C36.2476 1.16153 36.2899 1.37498 36.285 1.58997V2.45998C37.8565 2.76944 39.257 3.65144 40.215 4.93497C41.2057 6.21843 41.7342 7.79872 41.715 9.41997V18.6H44.205V20.4H25ZM34.6 24C34.2873 24.0022 33.9773 23.9414 33.6887 23.8211C33.4 23.7008 33.1386 23.5236 32.92 23.3C32.6884 23.0822 32.5048 22.8186 32.3808 22.5258C32.2569 22.2331 32.1953 21.9178 32.2 21.6H37C36.9982 22.2359 36.7447 22.8453 36.295 23.295C35.8453 23.7447 35.236 23.9981 34.6 24Z" fill="#8A8A8A"/>
<path d="M7.97727 31.2727V40H6.95455L2.19886 33.1477H2.11364V40H1.05682V31.2727H2.07955L6.85227 38.142H6.9375V31.2727H7.97727ZM12.6147 40.1364C12.0238 40.1364 11.5053 39.9957 11.0593 39.7145C10.6161 39.4332 10.2695 39.0398 10.0195 38.5341C9.77237 38.0284 9.64879 37.4375 9.64879 36.7614C9.64879 36.0795 9.77237 35.4844 10.0195 34.9759C10.2695 34.4673 10.6161 34.0724 11.0593 33.7912C11.5053 33.5099 12.0238 33.3693 12.6147 33.3693C13.2056 33.3693 13.7227 33.5099 14.1658 33.7912C14.6119 34.0724 14.9585 34.4673 15.2056 34.9759C15.4556 35.4844 15.5806 36.0795 15.5806 36.7614C15.5806 37.4375 15.4556 38.0284 15.2056 38.5341C14.9585 39.0398 14.6119 39.4332 14.1658 39.7145C13.7227 39.9957 13.2056 40.1364 12.6147 40.1364ZM12.6147 39.233C13.0636 39.233 13.4329 39.1179 13.7227 38.8878C14.0124 38.6577 14.2269 38.3551 14.3661 37.9801C14.5053 37.6051 14.5749 37.1989 14.5749 36.7614C14.5749 36.3239 14.5053 35.9162 14.3661 35.5384C14.2269 35.1605 14.0124 34.8551 13.7227 34.6222C13.4329 34.3892 13.0636 34.2727 12.6147 34.2727C12.1658 34.2727 11.7965 34.3892 11.5067 34.6222C11.217 34.8551 11.0025 35.1605 10.8633 35.5384C10.7241 35.9162 10.6545 36.3239 10.6545 36.7614C10.6545 37.1989 10.7241 37.6051 10.8633 37.9801C11.0025 38.3551 11.217 38.6577 11.5067 38.8878C11.7965 39.1179 12.1658 39.233 12.6147 39.233ZM19.9624 33.4545V34.3068H16.5703V33.4545H19.9624ZM17.5589 31.8864H18.5646V38.125C18.5646 38.4091 18.6058 38.6222 18.6882 38.7642C18.7734 38.9034 18.8814 38.9972 19.0121 39.0455C19.1456 39.0909 19.2862 39.1136 19.4339 39.1136C19.5447 39.1136 19.6357 39.108 19.7067 39.0966C19.7777 39.0824 19.8345 39.071 19.8771 39.0625L20.0817 39.9659C20.0135 39.9915 19.9183 40.017 19.7962 40.0426C19.674 40.071 19.5192 40.0852 19.3317 40.0852C19.0476 40.0852 18.7692 40.0241 18.4964 39.902C18.2266 39.7798 18.0021 39.5938 17.8232 39.3438C17.647 39.0938 17.5589 38.7784 17.5589 38.3977V31.8864ZM21.4751 40V33.4545H22.4808V40H21.4751ZM21.9865 32.3636C21.7905 32.3636 21.6214 32.2969 21.4794 32.1634C21.3402 32.0298 21.2706 31.8693 21.2706 31.6818C21.2706 31.4943 21.3402 31.3338 21.4794 31.2003C21.6214 31.0668 21.7905 31 21.9865 31C22.1825 31 22.3501 31.0668 22.4893 31.2003C22.6314 31.3338 22.7024 31.4943 22.7024 31.6818C22.7024 31.8693 22.6314 32.0298 22.4893 32.1634C22.3501 32.2969 22.1825 32.3636 21.9865 32.3636ZM27.2376 33.4545V34.3068H23.7092V33.4545H27.2376ZM24.766 40V32.5511C24.766 32.1761 24.854 31.8636 25.0302 31.6136C25.2063 31.3636 25.435 31.1761 25.7163 31.0511C25.9975 30.9261 26.2944 30.8636 26.6069 30.8636C26.854 30.8636 27.0558 30.8835 27.212 30.9233C27.3683 30.9631 27.4847 31 27.5614 31.0341L27.2717 31.9034C27.2205 31.8864 27.1495 31.8651 27.0586 31.8395C26.9705 31.8139 26.854 31.8011 26.7092 31.8011C26.3768 31.8011 26.1367 31.8849 25.989 32.0526C25.8441 32.2202 25.7717 32.4659 25.7717 32.7898V40H24.766ZM28.647 40V33.4545H29.6527V40H28.647ZM29.1584 32.3636C28.9624 32.3636 28.7933 32.2969 28.6513 32.1634C28.5121 32.0298 28.4425 31.8693 28.4425 31.6818C28.4425 31.4943 28.5121 31.3338 28.6513 31.2003C28.7933 31.0668 28.9624 31 29.1584 31C29.3544 31 29.522 31.0668 29.6612 31.2003C29.8033 31.3338 29.8743 31.4943 29.8743 31.6818C29.8743 31.8693 29.8033 32.0298 29.6612 32.1634C29.522 32.2969 29.3544 32.3636 29.1584 32.3636ZM34.1538 40.1364C33.5401 40.1364 33.0117 39.9915 32.5685 39.7017C32.1254 39.4119 31.7844 39.0128 31.5458 38.5043C31.3072 37.9957 31.1879 37.4148 31.1879 36.7614C31.1879 36.0966 31.31 35.5099 31.5543 35.0014C31.8015 34.4901 32.1452 34.0909 32.5856 33.804C33.0288 33.5142 33.5458 33.3693 34.1367 33.3693C34.5969 33.3693 35.0117 33.4545 35.381 33.625C35.7504 33.7955 36.0529 34.0341 36.2887 34.3409C36.5245 34.6477 36.6708 35.0057 36.7276 35.4148H35.7219C35.6452 35.1165 35.4748 34.8523 35.2106 34.6222C34.9492 34.3892 34.5969 34.2727 34.1538 34.2727C33.7617 34.2727 33.418 34.375 33.1225 34.5795C32.8299 34.7812 32.6012 35.0668 32.4364 35.4361C32.2745 35.8026 32.1935 36.233 32.1935 36.7273C32.1935 37.233 32.2731 37.6733 32.4322 38.0483C32.5941 38.4233 32.8214 38.7145 33.114 38.9219C33.4094 39.1293 33.756 39.233 34.1538 39.233C34.4151 39.233 34.6523 39.1875 34.8654 39.0966C35.0785 39.0057 35.2589 38.875 35.4066 38.7045C35.5543 38.5341 35.6594 38.3295 35.7219 38.0909H36.7276C36.6708 38.4773 36.5302 38.8253 36.3058 39.1349C36.0842 39.4418 35.7901 39.6861 35.4237 39.8679C35.06 40.0469 34.6367 40.1364 34.1538 40.1364ZM40.1239 40.1534C39.7092 40.1534 39.3327 40.0753 38.9947 39.919C38.6566 39.7599 38.3881 39.5312 38.1893 39.233C37.9904 38.9318 37.891 38.5682 37.891 38.142C37.891 37.767 37.9648 37.4631 38.1126 37.2301C38.2603 36.9943 38.4577 36.8097 38.7049 36.6761C38.9521 36.5426 39.2248 36.4432 39.5231 36.3778C39.8242 36.3097 40.1268 36.2557 40.4308 36.2159C40.8285 36.1648 41.1509 36.1264 41.3981 36.1009C41.6481 36.0724 41.8299 36.0256 41.9435 35.9602C42.06 35.8949 42.1183 35.7812 42.1183 35.6193V35.5852C42.1183 35.1648 42.0032 34.8381 41.7731 34.6051C41.5458 34.3722 41.2006 34.2557 40.7376 34.2557C40.2575 34.2557 39.881 34.3608 39.6083 34.571C39.3356 34.7812 39.1438 35.0057 39.033 35.2443L38.0785 34.9034C38.2489 34.5057 38.4762 34.196 38.7603 33.9744C39.0472 33.75 39.3597 33.5937 39.6978 33.5057C40.0387 33.4148 40.3739 33.3693 40.7035 33.3693C40.9137 33.3693 41.1552 33.3949 41.4279 33.446C41.7035 33.4943 41.9691 33.5952 42.2248 33.7486C42.4833 33.902 42.6978 34.1335 42.8683 34.4432C43.0387 34.7528 43.1239 35.1676 43.1239 35.6875V40H42.1183V39.1136H42.0671C41.9989 39.2557 41.8853 39.4077 41.7262 39.5696C41.5671 39.7315 41.3555 39.8693 41.0913 39.983C40.8271 40.0966 40.5046 40.1534 40.1239 40.1534ZM40.2773 39.25C40.6751 39.25 41.0103 39.1719 41.283 39.0156C41.5586 38.8594 41.766 38.6577 41.9052 38.4105C42.0472 38.1634 42.1183 37.9034 42.1183 37.6307V36.7102C42.0756 36.7614 41.9819 36.8082 41.837 36.8509C41.695 36.8906 41.5302 36.9261 41.3427 36.9574C41.158 36.9858 40.9776 37.0114 40.8015 37.0341C40.6282 37.054 40.4876 37.071 40.3796 37.0852C40.1183 37.1193 39.8739 37.1747 39.6467 37.2514C39.4222 37.3253 39.2404 37.4375 39.1012 37.5881C38.9648 37.7358 38.8967 37.9375 38.8967 38.1932C38.8967 38.5426 39.0259 38.8068 39.2844 38.9858C39.5458 39.1619 39.8768 39.25 40.2773 39.25ZM47.8061 33.4545V34.3068H44.4141V33.4545H47.8061ZM45.4027 31.8864H46.4084V38.125C46.4084 38.4091 46.4496 38.6222 46.532 38.7642C46.6172 38.9034 46.7251 38.9972 46.8558 39.0455C46.9893 39.0909 47.13 39.1136 47.2777 39.1136C47.3885 39.1136 47.4794 39.108 47.5504 39.0966C47.6214 39.0824 47.6783 39.071 47.7209 39.0625L47.9254 39.9659C47.8572 39.9915 47.7621 40.017 47.6399 40.0426C47.5178 40.071 47.3629 40.0852 47.1754 40.0852C46.8913 40.0852 46.6129 40.0241 46.3402 39.902C46.0703 39.7798 45.8459 39.5938 45.6669 39.3438C45.4908 39.0938 45.4027 38.7784 45.4027 38.3977V31.8864ZM49.3189 40V33.4545H50.3246V40H49.3189ZM49.8303 32.3636C49.6342 32.3636 49.4652 32.2969 49.3232 32.1634C49.1839 32.0298 49.1143 31.8693 49.1143 31.6818C49.1143 31.4943 49.1839 31.3338 49.3232 31.2003C49.4652 31.0668 49.6342 31 49.8303 31C50.0263 31 50.1939 31.0668 50.3331 31.2003C50.4751 31.3338 50.5462 31.4943 50.5462 31.6818C50.5462 31.8693 50.4751 32.0298 50.3331 32.1634C50.1939 32.2969 50.0263 32.3636 49.8303 32.3636ZM54.8256 40.1364C54.2347 40.1364 53.7163 39.9957 53.2702 39.7145C52.8271 39.4332 52.4805 39.0398 52.2305 38.5341C51.9833 38.0284 51.8597 37.4375 51.8597 36.7614C51.8597 36.0795 51.9833 35.4844 52.2305 34.9759C52.4805 34.4673 52.8271 34.0724 53.2702 33.7912C53.7163 33.5099 54.2347 33.3693 54.8256 33.3693C55.4165 33.3693 55.9336 33.5099 56.3768 33.7912C56.8228 34.0724 57.1694 34.4673 57.4165 34.9759C57.6665 35.4844 57.7915 36.0795 57.7915 36.7614C57.7915 37.4375 57.6665 38.0284 57.4165 38.5341C57.1694 39.0398 56.8228 39.4332 56.3768 39.7145C55.9336 39.9957 55.4165 40.1364 54.8256 40.1364ZM54.8256 39.233C55.2745 39.233 55.6438 39.1179 55.9336 38.8878C56.2234 38.6577 56.4379 38.3551 56.5771 37.9801C56.7163 37.6051 56.7859 37.1989 56.7859 36.7614C56.7859 36.3239 56.7163 35.9162 56.5771 35.5384C56.4379 35.1605 56.2234 34.8551 55.9336 34.6222C55.6438 34.3892 55.2745 34.2727 54.8256 34.2727C54.3768 34.2727 54.0075 34.3892 53.7177 34.6222C53.4279 34.8551 53.2134 35.1605 53.0742 35.5384C52.935 35.9162 52.8654 36.3239 52.8654 36.7614C52.8654 37.1989 52.935 37.6051 53.0742 37.9801C53.2134 38.3551 53.4279 38.6577 53.7177 38.8878C54.0075 39.1179 54.3768 39.233 54.8256 39.233ZM60.3324 36.0625V40H59.3267V33.4545H60.2983V34.4773H60.3835C60.5369 34.1449 60.7699 33.8778 61.0824 33.6761C61.3949 33.4716 61.7983 33.3693 62.2926 33.3693C62.7358 33.3693 63.1236 33.4602 63.456 33.642C63.7884 33.821 64.0469 34.0938 64.2315 34.4602C64.4162 34.8239 64.5085 35.2841 64.5085 35.8409V40H63.5028V35.9091C63.5028 35.3949 63.3693 34.9943 63.1023 34.7074C62.8352 34.4176 62.4688 34.2727 62.0028 34.2727C61.6818 34.2727 61.3949 34.3423 61.142 34.4815C60.892 34.6207 60.6946 34.8239 60.5497 35.0909C60.4048 35.358 60.3324 35.6818 60.3324 36.0625ZM70.9826 34.9205L70.0792 35.1761C70.0224 35.0256 69.9386 34.8793 69.8278 34.7372C69.7198 34.5923 69.5721 34.473 69.3846 34.3793C69.1971 34.2855 68.957 34.2386 68.6644 34.2386C68.2638 34.2386 67.93 34.331 67.663 34.5156C67.3988 34.6974 67.2667 34.929 67.2667 35.2102C67.2667 35.4602 67.3576 35.6577 67.5394 35.8026C67.7212 35.9474 68.0053 36.0682 68.3917 36.1648L69.3633 36.4034C69.9485 36.5455 70.3846 36.7628 70.6715 37.0554C70.9585 37.3452 71.1019 37.7187 71.1019 38.1761C71.1019 38.5511 70.994 38.8864 70.7781 39.1818C70.565 39.4773 70.2667 39.7102 69.8832 39.8807C69.4996 40.0511 69.0536 40.1364 68.5451 40.1364C67.8775 40.1364 67.3249 39.9915 66.8874 39.7017C66.4499 39.4119 66.1729 38.9886 66.0565 38.4318L67.011 38.1932C67.1019 38.5455 67.2738 38.8097 67.5266 38.9858C67.7823 39.1619 68.1161 39.25 68.5281 39.25C68.9968 39.25 69.369 39.1506 69.6445 38.9517C69.9229 38.75 70.0621 38.5085 70.0621 38.2273C70.0621 38 69.9826 37.8097 69.8235 37.6562C69.6644 37.5 69.4201 37.3835 69.0906 37.3068L67.9996 37.0511C67.4002 36.9091 66.9599 36.6889 66.6786 36.3906C66.4002 36.0895 66.261 35.7131 66.261 35.2614C66.261 34.892 66.3647 34.5653 66.5721 34.2812C66.7823 33.9972 67.0678 33.7741 67.4286 33.6122C67.7923 33.4503 68.2042 33.3693 68.6644 33.3693C69.3121 33.3693 69.8207 33.5114 70.19 33.7955C70.5621 34.0795 70.8263 34.4545 70.9826 34.9205Z" fill="#5F5F5F"/>
</svg>
