<svg width="26" height="42" viewBox="0 0 26 42" fill="none" xmlns="http://www.w3.org/2000/svg">
<path d="M20 1H6C3.79086 1 2 2.79086 2 5V19C2 21.2091 3.79086 23 6 23H20C22.2091 23 24 21.2091 24 19V5C24 2.79086 22.2091 1 20 1Z" fill="#8A8A8A"/>
<path d="M12.2159 17.1051V8.66761H13.6477V17.1051H12.2159ZM8.71307 13.6023V12.1705H17.1506V13.6023H8.71307Z" fill="white"/>
<path d="M1.05682 39V30.2727H4.00568C4.69034 30.2727 5.25 30.3963 5.68466 30.6435C6.12216 30.8878 6.44602 31.2188 6.65625 31.6364C6.86648 32.054 6.97159 32.5199 6.97159 33.0341C6.97159 33.5483 6.86648 34.0156 6.65625 34.4361C6.44886 34.8565 6.12784 35.1918 5.69318 35.4418C5.25852 35.6889 4.7017 35.8125 4.02273 35.8125H1.90909V34.875H3.98864C4.45739 34.875 4.83381 34.794 5.1179 34.6321C5.40199 34.4702 5.60795 34.2514 5.7358 33.9759C5.86648 33.6974 5.93182 33.3835 5.93182 33.0341C5.93182 32.6847 5.86648 32.3722 5.7358 32.0966C5.60795 31.821 5.40057 31.6051 5.11364 31.4489C4.8267 31.2898 4.44602 31.2102 3.97159 31.2102H2.11364V39H1.05682ZM11.1264 39.1364C10.5355 39.1364 10.017 38.9957 9.57102 38.7145C9.12784 38.4332 8.78125 38.0398 8.53125 37.5341C8.28409 37.0284 8.16051 36.4375 8.16051 35.7614C8.16051 35.0795 8.28409 34.4844 8.53125 33.9759C8.78125 33.4673 9.12784 33.0724 9.57102 32.7912C10.017 32.5099 10.5355 32.3693 11.1264 32.3693C11.7173 32.3693 12.2344 32.5099 12.6776 32.7912C13.1236 33.0724 13.4702 33.4673 13.7173 33.9759C13.9673 34.4844 14.0923 35.0795 14.0923 35.7614C14.0923 36.4375 13.9673 37.0284 13.7173 37.5341C13.4702 38.0398 13.1236 38.4332 12.6776 38.7145C12.2344 38.9957 11.7173 39.1364 11.1264 39.1364ZM11.1264 38.233C11.5753 38.233 11.9446 38.1179 12.2344 37.8878C12.5241 37.6577 12.7386 37.3551 12.8778 36.9801C13.017 36.6051 13.0866 36.1989 13.0866 35.7614C13.0866 35.3239 13.017 34.9162 12.8778 34.5384C12.7386 34.1605 12.5241 33.8551 12.2344 33.6222C11.9446 33.3892 11.5753 33.2727 11.1264 33.2727C10.6776 33.2727 10.3082 33.3892 10.0185 33.6222C9.72869 33.8551 9.5142 34.1605 9.375 34.5384C9.2358 34.9162 9.16619 35.3239 9.16619 35.7614C9.16619 36.1989 9.2358 36.6051 9.375 36.9801C9.5142 37.3551 9.72869 37.6577 10.0185 37.8878C10.3082 38.1179 10.6776 38.233 11.1264 38.233ZM20.2638 33.9205L19.3604 34.1761C19.3036 34.0256 19.2198 33.8793 19.109 33.7372C19.0011 33.5923 18.8533 33.473 18.6658 33.3793C18.4783 33.2855 18.2383 33.2386 17.9457 33.2386C17.5451 33.2386 17.2113 33.331 16.9442 33.5156C16.68 33.6974 16.5479 33.929 16.5479 34.2102C16.5479 34.4602 16.6388 34.6577 16.8207 34.8026C17.0025 34.9474 17.2866 35.0682 17.6729 35.1648L18.6445 35.4034C19.2298 35.5455 19.6658 35.7628 19.9528 36.0554C20.2397 36.3452 20.3832 36.7187 20.3832 37.1761C20.3832 37.5511 20.2752 37.8864 20.0593 38.1818C19.8462 38.4773 19.5479 38.7102 19.1644 38.8807C18.7809 39.0511 18.3349 39.1364 17.8263 39.1364C17.1587 39.1364 16.6062 38.9915 16.1687 38.7017C15.7312 38.4119 15.4542 37.9886 15.3377 37.4318L16.2923 37.1932C16.3832 37.5455 16.555 37.8097 16.8079 37.9858C17.0636 38.1619 17.3974 38.25 17.8093 38.25C18.2781 38.25 18.6502 38.1506 18.9258 37.9517C19.2042 37.75 19.3434 37.5085 19.3434 37.2273C19.3434 37 19.2638 36.8097 19.1048 36.6562C18.9457 36.5 18.7013 36.3835 18.3718 36.3068L17.2809 36.0511C16.6815 35.9091 16.2411 35.6889 15.9599 35.3906C15.6815 35.0895 15.5423 34.7131 15.5423 34.2614C15.5423 33.892 15.646 33.5653 15.8533 33.2812C16.0636 32.9972 16.3491 32.7741 16.7099 32.6122C17.0735 32.4503 17.4854 32.3693 17.9457 32.3693C18.5934 32.3693 19.1019 32.5114 19.4712 32.7955C19.8434 33.0795 20.1076 33.4545 20.2638 33.9205ZM24.7436 32.4545V33.3068H21.3516V32.4545H24.7436ZM22.3402 30.8864H23.3459V37.125C23.3459 37.4091 23.3871 37.6222 23.4695 37.7642C23.5547 37.9034 23.6626 37.9972 23.7933 38.0455C23.9268 38.0909 24.0675 38.1136 24.2152 38.1136C24.326 38.1136 24.4169 38.108 24.4879 38.0966C24.5589 38.0824 24.6158 38.071 24.6584 38.0625L24.8629 38.9659C24.7947 38.9915 24.6996 39.017 24.5774 39.0426C24.4553 39.071 24.3004 39.0852 24.1129 39.0852C23.8288 39.0852 23.5504 39.0241 23.2777 38.902C23.0078 38.7798 22.7834 38.5938 22.6044 38.3438C22.4283 38.0938 22.3402 37.7784 22.3402 37.3977V30.8864Z" fill="#5F5F5F"/>
</svg>
