<svg width="36" height="35" viewBox="0 0 36 35" fill="none" xmlns="http://www.w3.org/2000/svg">
<path fill-rule="evenodd" clip-rule="evenodd" d="M19.79 26.168C19.045 29.114 18.143 31.76 15.39 34.204C20.31 33.0489 24.6692 30.2053 27.709 26.168H19.79ZM28.607 0.946991H5.05599C1.36999 0.946991 0.355988 3.96199 0.355988 7.64699V19.469C0.355988 23.154 1.36999 26.169 5.05599 26.169H28.607C30.3824 26.164 32.0837 25.4565 33.3391 24.2011C34.5945 22.9457 35.302 21.2444 35.307 19.469V7.64699C35.302 5.87158 34.5945 4.17032 33.3391 2.91491C32.0837 1.65951 30.3824 0.952004 28.607 0.946991ZM10.456 10.447C10.9989 10.447 11.5296 10.608 11.981 10.9096C12.4324 11.2112 12.7843 11.6399 12.992 12.1415C13.1998 12.6431 13.2542 13.195 13.1482 13.7275C13.0423 14.26 12.7809 14.7491 12.397 15.133C12.0131 15.5169 11.524 15.7783 10.9915 15.8842C10.459 15.9902 9.9071 15.9358 9.40552 15.728C8.90394 15.5203 8.47523 15.1684 8.1736 14.717C7.87198 14.2656 7.71099 13.7349 7.71099 13.192C7.71099 12.464 8.00019 11.7658 8.51498 11.251C9.02977 10.7362 9.72797 10.447 10.456 10.447ZM26.213 10.447C26.7559 10.447 27.2866 10.608 27.738 10.9096C28.1894 11.2112 28.5413 11.6399 28.749 12.1415C28.9568 12.6431 29.0112 13.195 28.9052 13.7275C28.7993 14.26 28.5379 14.7491 28.154 15.133C27.7701 15.5169 27.281 15.7783 26.7485 15.8842C26.216 15.9902 25.6641 15.9358 25.1625 15.728C24.6609 15.5203 24.2322 15.1684 23.9306 14.717C23.629 14.2656 23.468 13.7349 23.468 13.192C23.468 12.4645 23.7568 11.7667 24.2709 11.252C24.7851 10.7373 25.4825 10.4478 26.21 10.447H26.213ZM18.334 10.447C18.8769 10.447 19.4076 10.608 19.859 10.9096C20.3104 11.2112 20.6623 11.6399 20.87 12.1415C21.0778 12.6431 21.1322 13.195 21.0262 13.7275C20.9203 14.26 20.6589 14.7491 20.275 15.133C19.8911 15.5169 19.402 15.7783 18.8695 15.8842C18.337 15.9902 17.7851 15.9358 17.2835 15.728C16.7819 15.5203 16.3532 15.1684 16.0516 14.717C15.75 14.2656 15.589 13.7349 15.589 13.192C15.589 12.4645 15.8778 11.7667 16.3919 11.252C16.9061 10.7373 17.6035 10.4478 18.331 10.447H18.334Z" fill="#5C5C5C"/>
</svg>
