<svg width="28" height="43" viewBox="0 0 28 43" fill="none" xmlns="http://www.w3.org/2000/svg">
<path d="M2.895 24C2.39624 23.9878 1.92129 23.7843 1.56851 23.4315C1.21574 23.0787 1.01218 22.6037 1 22.105V6.94701C1.01218 6.44825 1.21574 5.97329 1.56851 5.62051C1.92129 5.26774 2.39624 5.06418 2.895 5.052H8.579V1.894C8.59143 1.39542 8.7951 0.92071 9.14785 0.568146C9.5006 0.215582 9.97542 0.0121658 10.474 0H16.79C17.2888 0.0121763 17.7637 0.215736 18.1165 0.568512C18.4693 0.921288 18.6728 1.39625 18.685 1.895V5.05299H24.369C24.8678 5.06517 25.3427 5.26873 25.6955 5.62151C26.0483 5.97428 26.2518 6.44925 26.264 6.948V22.106C26.2516 22.6047 26.0477 23.0796 25.6948 23.4322C25.3418 23.7848 24.8668 23.9881 24.368 24H2.895ZM10.474 5.05299H16.79V1.895H10.474V5.05299Z" fill="#8A8A8A"/>
<path d="M4.39773 31.2727H5.45455V37.5114C5.45455 38.0682 5.35227 38.5412 5.14773 38.9304C4.94318 39.3196 4.65483 39.6151 4.28267 39.8168C3.91051 40.0185 3.47159 40.1193 2.96591 40.1193C2.48864 40.1193 2.06392 40.0327 1.69176 39.8594C1.3196 39.6832 1.02699 39.4332 0.81392 39.1094C0.600852 38.7855 0.494318 38.4006 0.494318 37.9545H1.53409C1.53409 38.2017 1.59517 38.4176 1.71733 38.6023C1.84233 38.7841 2.01278 38.9261 2.22869 39.0284C2.4446 39.1307 2.69034 39.1818 2.96591 39.1818C3.26989 39.1818 3.52841 39.1179 3.74148 38.9901C3.95455 38.8622 4.11648 38.6747 4.22727 38.4276C4.34091 38.1776 4.39773 37.8722 4.39773 37.5114V31.2727ZM10.0952 40.1364C9.50426 40.1364 8.9858 39.9957 8.53977 39.7145C8.09659 39.4332 7.75 39.0398 7.5 38.5341C7.25284 38.0284 7.12926 37.4375 7.12926 36.7614C7.12926 36.0795 7.25284 35.4844 7.5 34.9759C7.75 34.4673 8.09659 34.0724 8.53977 33.7912C8.9858 33.5099 9.50426 33.3693 10.0952 33.3693C10.6861 33.3693 11.2031 33.5099 11.6463 33.7912C12.0923 34.0724 12.4389 34.4673 12.6861 34.9759C12.9361 35.4844 13.0611 36.0795 13.0611 36.7614C13.0611 37.4375 12.9361 38.0284 12.6861 38.5341C12.4389 39.0398 12.0923 39.4332 11.6463 39.7145C11.2031 39.9957 10.6861 40.1364 10.0952 40.1364ZM10.0952 39.233C10.544 39.233 10.9134 39.1179 11.2031 38.8878C11.4929 38.6577 11.7074 38.3551 11.8466 37.9801C11.9858 37.6051 12.0554 37.1989 12.0554 36.7614C12.0554 36.3239 11.9858 35.9162 11.8466 35.5384C11.7074 35.1605 11.4929 34.8551 11.2031 34.6222C10.9134 34.3892 10.544 34.2727 10.0952 34.2727C9.64631 34.2727 9.27699 34.3892 8.98722 34.6222C8.69744 34.8551 8.48295 35.1605 8.34375 35.5384C8.20455 35.9162 8.13494 36.3239 8.13494 36.7614C8.13494 37.1989 8.20455 37.6051 8.34375 37.9801C8.48295 38.3551 8.69744 38.6577 8.98722 38.8878C9.27699 39.1179 9.64631 39.233 10.0952 39.233ZM14.7326 40V31.2727H15.7383V34.4943H15.8235C15.8974 34.3807 15.9996 34.2358 16.1303 34.0597C16.2638 33.8807 16.4542 33.7216 16.7013 33.5824C16.9513 33.4403 17.2894 33.3693 17.7156 33.3693C18.2667 33.3693 18.7525 33.5071 19.1729 33.7827C19.5934 34.0582 19.9215 34.4489 20.1573 34.9545C20.3931 35.4602 20.511 36.0568 20.511 36.7443C20.511 37.4375 20.3931 38.0384 20.1573 38.5469C19.9215 39.0526 19.5948 39.4446 19.1772 39.723C18.7596 39.9986 18.2781 40.1364 17.7326 40.1364C17.3121 40.1364 16.9755 40.0668 16.7227 39.9276C16.4698 39.7855 16.2752 39.625 16.1388 39.446C16.0025 39.2642 15.8974 39.1136 15.8235 38.9943H15.7042V40H14.7326ZM15.7212 36.7273C15.7212 37.2216 15.7937 37.6577 15.9386 38.0355C16.0835 38.4105 16.2951 38.7045 16.5735 38.9176C16.8519 39.1278 17.1928 39.233 17.5962 39.233C18.0167 39.233 18.3675 39.1222 18.6488 38.9006C18.9329 38.6761 19.146 38.375 19.288 37.9972C19.4329 37.6165 19.5053 37.1932 19.5053 36.7273C19.5053 36.267 19.4343 35.8523 19.2923 35.483C19.1531 35.1108 18.9414 34.8168 18.6573 34.6009C18.3761 34.3821 18.0224 34.2727 17.5962 34.2727C17.1871 34.2727 16.8434 34.3764 16.565 34.5838C16.2866 34.7884 16.0763 35.0753 15.9343 35.4446C15.7923 35.8111 15.7212 36.2386 15.7212 36.7273ZM26.6857 34.9205L25.7823 35.1761C25.7255 35.0256 25.6417 34.8793 25.5309 34.7372C25.4229 34.5923 25.2752 34.473 25.0877 34.3793C24.9002 34.2855 24.6602 34.2386 24.3675 34.2386C23.967 34.2386 23.6332 34.331 23.3661 34.5156C23.1019 34.6974 22.9698 34.929 22.9698 35.2102C22.9698 35.4602 23.0607 35.6577 23.2425 35.8026C23.4244 35.9474 23.7085 36.0682 24.0948 36.1648L25.0664 36.4034C25.6516 36.5455 26.0877 36.7628 26.3746 37.0554C26.6616 37.3452 26.805 37.7187 26.805 38.1761C26.805 38.5511 26.6971 38.8864 26.4812 39.1818C26.2681 39.4773 25.9698 39.7102 25.5863 39.8807C25.2028 40.0511 24.7567 40.1364 24.2482 40.1364C23.5806 40.1364 23.0281 39.9915 22.5906 39.7017C22.1531 39.4119 21.8761 38.9886 21.7596 38.4318L22.7141 38.1932C22.805 38.5455 22.9769 38.8097 23.2298 38.9858C23.4854 39.1619 23.8192 39.25 24.2312 39.25C24.6999 39.25 25.0721 39.1506 25.3477 38.9517C25.6261 38.75 25.7653 38.5085 25.7653 38.2273C25.7653 38 25.6857 37.8097 25.5266 37.6562C25.3675 37.5 25.1232 37.3835 24.7937 37.3068L23.7028 37.0511C23.1033 36.9091 22.663 36.6889 22.3817 36.3906C22.1033 36.0895 21.9641 35.7131 21.9641 35.2614C21.9641 34.892 22.0678 34.5653 22.2752 34.2812C22.4854 33.9972 22.771 33.7741 23.1317 33.6122C23.4954 33.4503 23.9073 33.3693 24.3675 33.3693C25.0153 33.3693 25.5238 33.5114 25.8931 33.7955C26.2653 34.0795 26.5295 34.4545 26.6857 34.9205Z" fill="#5F5F5F"/>
</svg>
