<svg width="23" height="39" viewBox="0 0 23 39" fill="none" xmlns="http://www.w3.org/2000/svg">
<path d="M1.05682 36V27.2727H2.11364V35.0625H6.17045V36H1.05682ZM7.67045 36V29.4545H8.67614V36H7.67045ZM8.18182 28.3636C7.9858 28.3636 7.81676 28.2969 7.67472 28.1634C7.53551 28.0298 7.46591 27.8693 7.46591 27.6818C7.46591 27.4943 7.53551 27.3338 7.67472 27.2003C7.81676 27.0668 7.9858 27 8.18182 27C8.37784 27 8.54545 27.0668 8.68466 27.2003C8.8267 27.3338 8.89773 27.4943 8.89773 27.6818C8.89773 27.8693 8.8267 28.0298 8.68466 28.1634C8.54545 28.2969 8.37784 28.3636 8.18182 28.3636ZM11.4556 33.6136L11.4386 32.3693H11.6431L14.5067 29.4545H15.7511L12.6999 32.5398H12.6147L11.4556 33.6136ZM10.5181 36V27.2727H11.5238V36H10.5181ZM14.6772 36L12.1204 32.7614L12.8363 32.0625L15.9556 36H14.6772ZM19.5202 36.1364C18.8896 36.1364 18.3455 35.9972 17.8881 35.7188C17.4336 35.4375 17.0827 35.0455 16.8356 34.5426C16.5913 34.0369 16.4691 33.4489 16.4691 32.7784C16.4691 32.108 16.5913 31.517 16.8356 31.0057C17.0827 30.4915 17.4265 30.0909 17.8668 29.804C18.31 29.5142 18.8271 29.3693 19.418 29.3693C19.7589 29.3693 20.0955 29.4261 20.4279 29.5398C20.7603 29.6534 21.0629 29.8381 21.3356 30.0938C21.6083 30.3466 21.8256 30.6818 21.9876 31.0994C22.1495 31.517 22.2305 32.0312 22.2305 32.642V33.0682H17.185V32.1989H21.2077C21.2077 31.8295 21.1339 31.5 20.9862 31.2102C20.8413 30.9205 20.6339 30.6918 20.364 30.5241C20.0969 30.3565 19.7816 30.2727 19.418 30.2727C19.0174 30.2727 18.6708 30.3722 18.3782 30.571C18.0884 30.767 17.8654 31.0227 17.7092 31.3381C17.5529 31.6534 17.4748 31.9915 17.4748 32.3523V32.9318C17.4748 33.4261 17.56 33.8452 17.7305 34.1889C17.9038 34.5298 18.1438 34.7898 18.4506 34.9688C18.7575 35.1449 19.114 35.233 19.5202 35.233C19.7844 35.233 20.0231 35.196 20.2362 35.1222C20.4521 35.0455 20.6381 34.9318 20.7944 34.7812C20.9506 34.6278 21.0714 34.4375 21.1566 34.2102L22.1282 34.483C22.0259 34.8125 21.854 35.1023 21.6126 35.3523C21.3711 35.5994 21.0728 35.7926 20.7177 35.9318C20.3626 36.0682 19.9634 36.1364 19.5202 36.1364Z" fill="#5F5F5F"/>
<path fill-rule="evenodd" clip-rule="evenodd" d="M2.344 8.21699H5.503C5.6754 8.21779 5.84047 8.28683 5.9621 8.40902C6.08372 8.53121 6.152 8.69659 6.152 8.86899V17.528C6.15122 17.7002 6.08269 17.8651 5.96123 17.9871C5.83977 18.1091 5.67516 18.1784 5.503 18.18H2.344C2.17132 18.1792 2.00594 18.1103 1.88384 17.9882C1.76174 17.8661 1.69279 17.7007 1.692 17.528V8.86899C1.69279 8.69632 1.76174 8.53093 1.88384 8.40883C2.00594 8.28673 2.17132 8.21778 2.344 8.21699ZM10.629 1.72299C10.97 -0.0180063 13.818 1.58499 14.006 4.38799C14.0481 5.38419 13.9669 6.38176 13.764 7.35799H17.835C19.525 7.42699 21.003 8.63799 19.959 10.627C20.198 11.494 20.234 12.511 19.588 12.915C19.6609 13.4415 19.6075 13.9778 19.4323 14.4796C19.257 14.9814 18.9649 15.4344 18.58 15.801C18.5667 16.4249 18.3827 17.0333 18.048 17.56C17.501 18.332 17.058 18.16 16.196 18.16H9.316C8.84634 18.1917 8.37676 18.0971 7.95597 17.8861C7.53519 17.6751 7.17853 17.3553 6.923 16.96V9.29699C8.99 8.74999 10.079 5.94699 10.629 4.10699V1.71399V1.72299Z" fill="white" stroke="#5F5F5F"/>
</svg>
