<svg width="30" height="37" viewBox="0 0 30 37" fill="none" xmlns="http://www.w3.org/2000/svg">
<path d="M5.82955 27.4545C5.77841 27.0227 5.57102 26.6875 5.20739 26.4489C4.84375 26.2102 4.39773 26.0909 3.86932 26.0909C3.48295 26.0909 3.14489 26.1534 2.85511 26.2784C2.56818 26.4034 2.34375 26.5753 2.18182 26.794C2.02273 27.0128 1.94318 27.2614 1.94318 27.5398C1.94318 27.7727 1.99858 27.973 2.10938 28.1406C2.22301 28.3054 2.3679 28.4432 2.54403 28.554C2.72017 28.6619 2.90483 28.7514 3.09801 28.8224C3.29119 28.8906 3.46875 28.946 3.63068 28.9886L4.51705 29.2273C4.74432 29.2869 4.99716 29.3693 5.27557 29.4744C5.55682 29.5795 5.82528 29.723 6.08097 29.9048C6.33949 30.0838 6.55256 30.3139 6.72017 30.5952C6.88778 30.8764 6.97159 31.2216 6.97159 31.6307C6.97159 32.1023 6.84801 32.5284 6.60085 32.9091C6.35653 33.2898 5.99858 33.5923 5.52699 33.8168C5.05824 34.0412 4.48864 34.1534 3.81818 34.1534C3.19318 34.1534 2.65199 34.0526 2.1946 33.8509C1.74006 33.6491 1.3821 33.3679 1.12074 33.0071C0.862216 32.6463 0.715909 32.2273 0.681818 31.75H1.77273C1.80114 32.0795 1.91193 32.3523 2.10511 32.5682C2.30114 32.7812 2.5483 32.9403 2.84659 33.0455C3.14773 33.1477 3.47159 33.1989 3.81818 33.1989C4.22159 33.1989 4.58381 33.1335 4.90483 33.0028C5.22585 32.8693 5.48011 32.6847 5.66761 32.4489C5.85511 32.2102 5.94886 31.9318 5.94886 31.6136C5.94886 31.3239 5.8679 31.0881 5.70597 30.9062C5.54403 30.7244 5.33097 30.5767 5.06676 30.4631C4.80256 30.3494 4.51705 30.25 4.21023 30.1648L3.13636 29.858C2.45455 29.6619 1.91477 29.3821 1.51705 29.0185C1.11932 28.6548 0.920455 28.179 0.920455 27.5909C0.920455 27.1023 1.05256 26.6761 1.31676 26.3125C1.58381 25.946 1.94176 25.6619 2.39062 25.4602C2.84233 25.2557 3.34659 25.1534 3.90341 25.1534C4.46591 25.1534 4.96591 25.2543 5.40341 25.456C5.84091 25.6548 6.1875 25.9276 6.44318 26.2741C6.7017 26.6207 6.83807 27.0142 6.85227 27.4545H5.82955ZM11.3171 34.1364C10.6864 34.1364 10.1424 33.9972 9.68501 33.7188C9.23047 33.4375 8.87962 33.0455 8.63246 32.5426C8.38814 32.0369 8.26598 31.4489 8.26598 30.7784C8.26598 30.108 8.38814 29.517 8.63246 29.0057C8.87962 28.4915 9.22337 28.0909 9.66371 27.804C10.1069 27.5142 10.6239 27.3693 11.2148 27.3693C11.5558 27.3693 11.8924 27.4261 12.2248 27.5398C12.5572 27.6534 12.8597 27.8381 13.1325 28.0938C13.4052 28.3466 13.6225 28.6818 13.7844 29.0994C13.9464 29.517 14.0273 30.0312 14.0273 30.642V31.0682H8.98189V30.1989H13.0046C13.0046 29.8295 12.9308 29.5 12.783 29.2102C12.6381 28.9205 12.4308 28.6918 12.1609 28.5241C11.8938 28.3565 11.5785 28.2727 11.2148 28.2727C10.8143 28.2727 10.4677 28.3722 10.1751 28.571C9.8853 28.767 9.66229 29.0227 9.50604 29.3381C9.34979 29.6534 9.27166 29.9915 9.27166 30.3523V30.9318C9.27166 31.4261 9.35689 31.8452 9.52734 32.1889C9.70064 32.5298 9.9407 32.7898 10.2475 32.9688C10.5543 33.1449 10.9109 33.233 11.3171 33.233C11.5813 33.233 11.82 33.196 12.033 33.1222C12.2489 33.0455 12.435 32.9318 12.5913 32.7812C12.7475 32.6278 12.8683 32.4375 12.9535 32.2102L13.9251 32.483C13.8228 32.8125 13.6509 33.1023 13.4094 33.3523C13.168 33.5994 12.8697 33.7926 12.5146 33.9318C12.1594 34.0682 11.7603 34.1364 11.3171 34.1364ZM16.5629 30.0625V34H15.5572V27.4545H16.5288V28.4773H16.614C16.7674 28.1449 17.0004 27.8778 17.3129 27.6761C17.6254 27.4716 18.0288 27.3693 18.5231 27.3693C18.9663 27.3693 19.354 27.4602 19.6864 27.642C20.0188 27.821 20.2773 28.0938 20.462 28.4602C20.6467 28.8239 20.739 29.2841 20.739 29.8409V34H19.7333V29.9091C19.7333 29.3949 19.5998 28.9943 19.3327 28.7074C19.0657 28.4176 18.6992 28.2727 18.2333 28.2727C17.9123 28.2727 17.6254 28.3423 17.3725 28.4815C17.1225 28.6207 16.9251 28.8239 16.7802 29.0909C16.6353 29.358 16.5629 29.6818 16.5629 30.0625ZM25.0483 34.1364C24.5028 34.1364 24.0213 33.9986 23.6037 33.723C23.1861 33.4446 22.8594 33.0526 22.6236 32.5469C22.3878 32.0384 22.2699 31.4375 22.2699 30.7443C22.2699 30.0568 22.3878 29.4602 22.6236 28.9545C22.8594 28.4489 23.1875 28.0582 23.608 27.7827C24.0284 27.5071 24.5142 27.3693 25.0653 27.3693C25.4915 27.3693 25.8281 27.4403 26.0753 27.5824C26.3253 27.7216 26.5156 27.8807 26.6463 28.0597C26.7798 28.2358 26.8835 28.3807 26.9574 28.4943H27.0426V25.2727H28.0483V34H27.0767V32.9943H26.9574C26.8835 33.1136 26.7784 33.2642 26.642 33.446C26.5057 33.625 26.3111 33.7855 26.0582 33.9276C25.8054 34.0668 25.4688 34.1364 25.0483 34.1364ZM25.1847 33.233C25.5881 33.233 25.929 33.1278 26.2074 32.9176C26.4858 32.7045 26.6974 32.4105 26.8423 32.0355C26.9872 31.6577 27.0597 31.2216 27.0597 30.7273C27.0597 30.2386 26.9886 29.8111 26.8466 29.4446C26.7045 29.0753 26.4943 28.7884 26.2159 28.5838C25.9375 28.3764 25.5938 28.2727 25.1847 28.2727C24.7585 28.2727 24.4034 28.3821 24.1193 28.6009C23.8381 28.8168 23.6264 29.1108 23.4844 29.483C23.3452 29.8523 23.2756 30.267 23.2756 30.7273C23.2756 31.1932 23.3466 31.6165 23.4886 31.9972C23.6335 32.375 23.8466 32.6761 24.1278 32.9006C24.4119 33.1222 24.7642 33.233 25.1847 33.233Z" fill="#5F5F5F"/>
<path d="M20.5 1.417L6.90399 6.645L11.024 8.618L17.333 4.558L13.382 11.058L15.305 15.049L20.497 1.417H20.5ZM5.41399 6.108L21.175 0.0519963C21.2388 0.0209168 21.3084 0.00344526 21.3793 0.000690851C21.4502 -0.00206356 21.521 0.00995937 21.587 0.0359963C21.7154 0.085051 21.8191 0.183038 21.8753 0.308459C21.9316 0.433879 21.9358 0.576489 21.887 0.704996L15.848 16.543C15.8116 16.6371 15.7485 16.7185 15.6665 16.7773C15.5845 16.8361 15.4872 16.8697 15.3864 16.8741C15.2856 16.8784 15.1857 16.8533 15.099 16.8018C15.0122 16.7503 14.9424 16.6746 14.898 16.584L11.785 10.129L5.37499 7.059C5.28289 7.01588 5.20558 6.94652 5.15278 6.85961C5.09997 6.7727 5.07403 6.67213 5.07819 6.57053C5.08236 6.46892 5.11646 6.37081 5.1762 6.28852C5.23594 6.20623 5.31867 6.14342 5.41399 6.108Z" fill="#5F5F5F"/>
</svg>
